<?xml version="1.0" standalone="no"?>
<!DOCTYPE svg PUBLIC "-//W3C//DTD SVG 20010904//EN"
 "http://www.w3.org/TR/2001/REC-SVG-20010904/DTD/svg10.dtd">
<svg version="1.0" xmlns="http://www.w3.org/2000/svg"
 width="1935.000000pt" height="1935.000000pt" viewBox="0 0 1935.000000 1935.000000"
 preserveAspectRatio="xMidYMid meet">
<metadata>
Created by potrace 1.15, written by Peter Selinger 2001-2017
</metadata>
<g transform="translate(0.000000,1935.000000) scale(0.100000,-0.100000)"
fill="#4a76a8" stroke="none">
<path d="M9115 19069 c-1843 -109 -3608 -756 -5080 -1861 -378 -284 -618 -491
-964 -832 -367 -363 -630 -663 -927 -1058 -364 -486 -654 -960 -924 -1511
-554 -1132 -862 -2309 -940 -3597 -13 -213 -13 -857 0 -1070 103 -1704 625
-3270 1557 -4673 565 -850 1301 -1639 2108 -2258 738 -566 1575 -1031 2430
-1349 902 -335 1786 -521 2765 -580 213 -13 857 -13 1070 0 1553 94 2990 536
4305 1323 892 534 1723 1247 2397 2056 669 803 1206 1726 1571 2697 336 896
527 1801 587 2784 13 213 13 857 0 1070 -103 1705 -625 3269 -1557 4673 -362
545 -752 1016 -1234 1493 -346 341 -586 548 -964 832 -483 363 -956 652 -1508
922 -1133 555 -2326 866 -3601 940 -205 12 -885 11 -1091 -1z m2425 -4670
c147 -10 324 -24 460 -37 l75 -7 3 -767 2 -768 -437 -1 c-616 -1 -751 -15
-929 -100 -150 -72 -250 -206 -293 -392 -23 -99 -31 -309 -31 -894 l0 -603
771 0 771 0 -5 -67 c-6 -63 -13 -126 -37 -308 -28 -216 -47 -368 -65 -525 -24
-197 -34 -280 -46 -372 -21 -165 -27 -215 -38 -303 -5 -49 -13 -100 -17 -112
l-6 -23 -664 0 -664 0 0 -2135 0 -2135 -860 0 -860 0 0 2135 0 2135 -695 0
-695 0 0 855 0 855 695 0 695 0 0 753 c0 701 6 882 30 1047 14 97 40 226 59
293 6 20 15 52 20 70 21 73 44 144 58 177 8 19 19 44 23 55 22 55 107 225 132
262 15 23 28 44 28 47 0 6 32 54 86 126 66 88 162 190 271 287 15 13 57 45 93
71 36 26 74 55 84 64 11 10 24 18 29 18 5 0 21 8 35 19 29 20 164 90 225 115
20 9 53 23 72 32 37 16 175 60 235 75 119 29 190 43 295 59 74 11 927 10 1095
-1z"/>
</g>
</svg>
